# AST/ASF file generated using VICON BodyLanguage
# -----------------------------------------------
:version 1.10
:name VICON
:units
  mass 1.0
  length 0.45
  angle deg
:documentation
   .ast/.asf automatically generated from VICON data using
   VICON BodyBuilder and BodyLanguage model FoxedUp or BRILLIANT.MOD
:root
   order TX TY TZ RX RY RZ
   axis XYZ
   position 0 0 0  
   orientation 0 0 0 
:bonedata
  begin
     id 1 
     name lhipjoint
     direction 0.692814 -0.645514 0.321437 
     length 2.38754 
     axis 0 0 0  XYZ
  end
  begin
     id 2 
     name lfemur
     direction 0.34202 -0.939693 0  
     length 6.41921  
     axis 0 0 20  XYZ
    dof rx ry rz
    limits (-160.0 20.0)
           (-70.0 70.0)
           (-60.0 70.0)
  end
  begin
     id 3 
     name ltibia
     direction 0.34202 -0.939693 0   
     length 6.98247   
     axis 0 0 20   XYZ
    dof rx
    limits (-10.0 170.0)
  end
  begin
     id 4 
     name lfoot
     direction 0.0947186 -0.260237 0.960888   
     length 1.83034   
     axis -90 7.62852e-016 20   XYZ
    dof rx rz
    limits (-45.0 90.0)
           (-70.0 20.0)
  end
  begin
     id 5 
     name ltoes
     direction 1.53538e-011 -4.21952e-011 1   
     length 0.920499   
     axis -90 7.62852e-016 20   XYZ
    dof rx
    limits (-90.0 20.0)
  end
  begin
     id 6 
     name rhipjoint
     direction -0.631686 -0.693949 0.345555   
     length 2.2209  
     axis 0 0 0  XYZ 
  end
  begin
     id 7 
     name rfemur
     direction -0.34202 -0.939693 0   
     length 6.49542   
     axis 0 0 -20   XYZ
    dof rx ry rz
    limits (-160.0 20.0)
           (-70.0 70.0)
           (-70.0 60.0)
  end
  begin
     id 8 
     name rtibia
     direction -0.34202 -0.939693 0   
     length 7.21712   
     axis 0 0 -20   XYZ
    dof rx
    limits (-10.0 170.0)
 end
 begin
     id 9 
     name rfoot
     direction -0.0825378 -0.226771 0.970444   
     length 1.89724  
     axis -90 -7.62852e-016 -20   XYZ
    dof rx rz
    limits (-45.0 90.0)
           (-20.0 70.0)
  end
  begin
     id 10 
     name rtoes
     direction -1.53515e-011 -4.22016e-011 1   
     length 0.955868   
     axis -90 -7.62852e-016 -20   XYZ
    dof rx
    limits (-90.0 20.0)
  end
  begin
     id 11 
     name lowerback
     direction -0.0104711 0.984802 -0.173368   
     length 1.84931   
     axis 0 0 0   XYZ
    dof rx ry rz
    limits (-20.0 45.0)
           (-30.0 30.0)
           (-30.0 30.0)
  end
  begin
     id 12 
     name upperback
     direction -0.00286433 0.999996 -0.000382853   
     length 1.85768   
     axis 0 0 0   XYZ
    dof rx ry rz
    limits (-20.0 45.0)
           (-30.0 30.0)
           (-30.0 30.0)
  end
  begin
     id 13 
     name thorax
     direction 0.00167534 0.996793 0.0800069   
     length 1.92   
     axis 0 0 0   XYZ
    dof rx ry rz
    limits (-20.0 45.0)
           (-30.0 30.0)
           (-30.0 30.0)
  end
  begin
     id 14 
     name lowerneck
     direction -0.0672491 0.995415 0.068018   
     length 1.58923   
     axis 0 0 0   XYZ
    dof rx ry rz
    limits (-20.0 45.0)
           (-30.0 30.0)
           (-30.0 30.0)
  end
  begin
     id 15 
     name upperneck
     direction 0.0958019 0.982476 -0.159884   
     length 1.60189   
     axis 0 0 0   XYZ
    dof rx ry rz
    limits (-20.0 45.0)
           (-30.0 30.0)
           (-30.0 30.0)
  end
  begin
     id 16
     name head
     direction 0.032989 0.997338 -0.0650226  
     length 1.61681  
     axis 0 0 0   XYZ
    dof rx ry rz
    limits (-20.0 45.0)
           (-30.0 30.0)
           (-30.0 30.0)
  end
  begin
     id 17 
     name lclavicle
     direction 0.954279 0.298875 -0.00496069  
     length 2.99449  
     axis 0 0 0   XYZ
    dof ry rz
    limits (-20.0 10.0)
           (0.0 20.0)
  end
  begin
     id 18 
     name lhumerus
     direction 1 -4.48985e-011 -4.2057e-027   
     length 4.79185   
     axis 180 -30 -90   XYZ
    dof rx ry rz
    limits (-60.0 90.0)
           (-90.0 90.0)
           (-90.0 90.0)
  end
  begin
     id 19
     name lradius
     direction 1 -4.48945e-011 1.15441e-028   
     length 2.65553   
     axis 180 -30 -90   XYZ
    dof rx
    limits (-10.0 170.0)
  end
  begin
     id 20
     name lwrist
     direction 1 -4.4899e-011 4.8894e-028   
     length 1.32777   
     axis -2.56392e-016 90 90   XYZ
    dof ry
    limits (-180.0 0.0)
 end
  begin
     id 21 
     name lhand
     direction 1 -4.48908e-011 9.7788e-028   
     length 0.743904   
     axis -6.23971e-016 90 90   XYZ
    dof rx rz
    limits (-90.0 90.0)
           (-45.0 45.0)
  end
  begin
     id 22 
     name lfingers
     direction 1 -4.49068e-011 1.95576e-027   
     length 0.599754   
     axis -1.24794e-015 90 90   XYZ
    dof rx
    limits (0.0 90.0)
  end
  begin
     id 23
     name lthumb
     direction 0.707107 -6.34883e-011 0.707107   
     length 0.861131   
     axis -90 45 2.85299e-015   XYZ
    dof rx rz
    limits (-45.0 45.0)
           (-45.0 45.0)
  end
  begin
     id 24 
     name rclavicle
     direction -0.957921 0.286916 0.00811568   
     length 3.06817  
     axis 0 0 0   XYZ 
    dof ry rz
    limits (-10.0 20.0)
           (-20.0 0.0)
  end
  begin
     id 25 
     name rhumerus
     direction -1 -4.48971e-011 -3.07942e-027  
     length 4.77254   
     axis 180 30 90   XYZ
    dof rx ry rz
    limits (-90.0 60.0)
           (-90.0 90.0)
           (-90.0 90.0)
  end
  begin
     id 26 
     name rradius
     direction -1 -4.48957e-011 -9.6815e-028   
     length 2.75995   
     axis 180 30 90   XYZ
    dof rx
    limits (-10.0 170.0)
  end
  begin
     id 27 
     name rwrist
     direction -1 -4.48979e-011 4.8894e-028   
     length 1.37997   
     axis -2.56392e-016 -90 -90   XYZ
    dof ry
    limits (-180.0 0.0)
  end
  begin
     id 28
     name rhand
     direction -1 -4.48906e-011 9.7788e-028   
     length 0.701619   
     axis -6.23971e-016 -90 -90   XYZ
    dof rx rz
    limits (-90.0 90.0)
           (-45.0 45.0)
  end
  begin
     id 29
     name rfingers
     direction -1 -4.49018e-011 1.95576e-027   
     length 0.565663   
     axis -1.24794e-015 -90 -90   XYZ
    dof rx
    limits (0.0 90.0)
  end
  begin
     id 30
     name rthumb
     direction -0.707107 -6.34881e-011 0.707107   
     length 0.812183   
     axis -90 -45 -2.85299e-015   XYZ
    dof rx rz
    limits (-45.0 45.0)
           (-45.0 45.0)
  end
:hierarchy
  begin
    root lhipjoint rhipjoint lowerback
    lhipjoint lfemur
    lfemur ltibia
    ltibia lfoot
    lfoot ltoes
    rhipjoint rfemur
    rfemur rtibia
    rtibia rfoot
    rfoot rtoes
    lowerback upperback
    upperback thorax
    thorax lowerneck lclavicle rclavicle
    lowerneck upperneck
    upperneck head
    lclavicle lhumerus
    lhumerus lradius
    lradius lwrist
    lwrist lhand lthumb
    lhand lfingers
    rclavicle rhumerus
    rhumerus rradius
    rradius rwrist
    rwrist rhand rthumb
    rhand rfingers
  end

#!OML:ASF F:\VICON\USERDATA\INSTALL\rory3\rory3.ASF
:FULLY-SPECIFIED
:DEGREES
434
root -0.808644 15.1474 -0.979904 -1.63766 0.247743 4.40958
lowerback 18.0014 -0.1325 -0.542149
upperback 3.42729 -0.308978 -0.473908
thorax -6.397 -0.142722 -0.126539
lowerneck -5.1231 -10.6454 -15.5243
upperneck 15.3379 -14.7963 11.9338
head 7.61202 -7.20694 4.9971
rclavicle 1.45113e-014 -3.97569e-015
rhumerus -74.3015 56.2935 -91.1831
rradius 133.313
rwrist -31.9313
rhand 40.2741 9.61704
rfingers 7.12502
rthumb 62.622 -1.0802
lclavicle 1.45113e-014 -3.97569e-015
lhumerus -74.5495 -59.9382 88.4865
lradius 133.209
lwrist 69.3248
lhand 21.8584 40.3618
lfingers 7.12502
lthumb 46.2622 63.3464
rfemur -21.947 1.47905 15.7622
rtibia 51.6134
rfoot -22.1553 -9.89483
rtoes -17.8073
lfemur -16.9764 5.70916 -16.7188
ltibia 40.9393
lfoot -14.5273 -5.63506
ltoes -11.6248
435
root -0.819375 15.1588 -0.963502 -1.60006 0.367346 4.5723
lowerback 17.9062 -0.229584 -0.577297
upperback 3.37747 -0.443261 -0.485507
thorax -6.3988 -0.207311 -0.0882698
lowerneck -4.9145 -10.5814 -15.5569
upperneck 15.4361 -14.7258 11.8443
head 7.59228 -7.18895 4.99292
rclavicle 2.98177e-016 3.97569e-015
rhumerus -74.9764 54.9295 -90.3429
rradius 133.328
rwrist -31.4584
rhand 38.4822 9.64871
rfingers 7.12502
rthumb 61.1255 -2.89315
lclavicle 2.98177e-016 3.97569e-015
lhumerus -75.1825 -58.4914 87.556
lradius 133.209
lwrist 68.9835
lhand 21.4815 39.8296
lfingers 7.12502
lthumb 45.9126 62.9604
rfemur -21.7634 1.40653 15.6071
rtibia 51.4413
rfoot -22.242 -9.88023
rtoes -17.4957
lfemur -16.7906 5.73124 -16.8659
ltibia 40.607
lfoot -14.3811 -5.70588
ltoes -11.8277
436
root -0.828415 15.1709 -0.94662 -1.53085 0.454303 4.68495
lowerback 17.8456 -0.339116 -0.442974
upperback 3.25839 -0.568276 -0.565984
thorax -6.4959 -0.27103 -0.221762
lowerneck -4.53858 -10.5064 -15.5105
upperneck 15.4545 -14.6678 11.7702
head 7.51362 -7.17856 4.98914
rclavicle -1.12313e-014 1.51076e-014
rhumerus -75.7634 53.4193 -89.6373
rradius 133.231
rwrist -30.6903
rhand 36.5837 10.3363
rfingers 7.12502
rthumb 59.508 -3.95033
lclavicle -1.12313e-014 1.51076e-014
lhumerus -75.6612 -57.037 86.3071
lradius 133.286
lwrist 68.9549
lhand 21.1702 39.5626
lfingers 7.12502
lthumb 45.6236 62.8122
rfemur -21.6522 1.32304 15.5047
rtibia 51.2595
rfoot -22.2086 -9.94833
rtoes -17.5609
lfemur -16.6287 5.80158 -16.9599
ltibia 40.2722
lfoot -14.2246 -5.83065
ltoes -11.5671
437
root -0.83825 15.183 -0.931545 -1.40395 0.500454 4.77925
lowerback 17.7316 -0.458098 -0.432
upperback 3.12892 -0.722994 -0.568334
thorax -6.5737 -0.346293 -0.195242
lowerneck -4.25589 -10.4005 -15.4749
upperneck 15.564 -14.5476 11.6221
head 7.46732 -7.13984 4.96563
rclavicle 1.04362e-014 4.77083e-015
rhumerus -76.0438 52.0227 -88.2769
rradius 133.158
rwrist -30.336
rhand 35.5205 11.0244
rfingers 7.12502
rthumb 58.5897 -4.1559
lclavicle 1.04362e-014 4.77083e-015
lhumerus -76.1296 -55.2642 84.9963
lradius 133.481
lwrist 68.9057
lhand 20.7822 39.3561
lfingers 7.12502
lthumb 45.263 62.7513
rfemur -21.6416 1.31994 15.4416
rtibia 51.0813
rfoot -22.16 -10.0364
rtoes -17.7639
lfemur -16.5642 5.91193 -17.0289
ltibia 39.9828
lfoot -14.0585 -5.9797
ltoes -11.1339
438
root -0.8499 15.1923 -0.917334 -1.3243 0.525043 4.77743
lowerback 17.7247 -0.550516 -0.429109
upperback 2.95813 -0.837708 -0.465823
thorax -6.75208 -0.400571 -0.060235
lowerneck -3.88938 -10.2969 -15.6134
upperneck 15.6982 -14.4374 11.5288
head 7.43411 -7.11487 4.98928
rclavicle 8.54774e-015 9.54166e-015
rhumerus -75.8898 50.4285 -86.0987
rradius 133.383
rwrist -30.8716
rhand 36.1107 10.9636
rfingers 7.12502
rthumb 59.1005 -3.7276
lclavicle 8.54774e-015 9.54166e-015
lhumerus -77.1321 -53.2183 84.1941
lradius 133.735
lwrist 68.2554
lhand 20.4234 38.5078
lfingers 7.12502
lthumb 44.9293 62.0351
rfemur -21.5549 1.38755 15.4991
rtibia 50.918
rfoot -22.2085 -10.0865
rtoes -17.8928
lfemur -16.4761 6.00805 -16.9712
ltibia 39.7471
lfoot -13.9189 -6.07485
ltoes -10.9858
439
root -0.861302 15.199 -0.905409 -1.24103 0.576096 4.69078
lowerback 17.8869 -0.633457 -0.242821
upperback 2.67444 -0.90965 -0.403031
thorax -7.14755 -0.437988 -0.078758
lowerneck -3.33497 -10.2116 -15.6928
upperneck 15.7962 -14.3882 11.4625
head 7.36228 -7.12127 5.01481
rclavicle 2.29596e-014 -1.78906e-014
rhumerus -75.855 48.4075 -83.901
rradius 133.8
rwrist -31.8886
rhand 37.3926 10.2093
rfingers 7.12502
rthumb 60.2009 -3.35832
lclavicle 2.29596e-014 -1.78906e-014
lhumerus -77.8021 -51.1654 82.914
lradius 134.055
lwrist 67.9454
lhand 20.3304 38.1431
lfingers 7.12502
lthumb 44.8428 61.7044
rfemur -21.4969 1.44142 15.6577
rtibia 50.7866
rfoot -22.2313 -10.2022
rtoes -17.6048
lfemur -16.4352 6.04232 -16.8249
ltibia 39.5514
lfoot -13.7992 -6.10071
ltoes -11.1652
440
root -0.871083 15.2054 -0.894851 -1.0954 0.612488 4.73992
lowerback 17.9977 -0.672786 -0.181546
upperback 2.40324 -0.947566 -0.350932
thorax -7.50097 -0.456374 -0.045666
lowerneck -3.02702 -10.1687 -15.7422
upperneck 15.9638 -14.3508 11.2799
head 7.34758 -7.12932 4.98233
rclavicle 1.17283e-014 -4.77083e-015
rhumerus -75.9662 46.2475 -81.831
rradius 134.253
rwrist -32.4909
rhand 37.7375 9.44834
rfingers 7.12502
rthumb 60.4946 -3.80201
lclavicle 1.17283e-014 -4.77083e-015
lhumerus -77.7334 -49.1013 81.1336
lradius 134.262
lwrist 68.1935
lhand 20.3521 38.5102
lfingers 7.12502
lthumb 44.8629 62.0636
rfemur -21.5465 1.44469 15.6462
rtibia 50.6814
rfoot -22.2294 -10.2542
rtoes -17.3947
lfemur -16.4729 6.07935 -16.8438
ltibia 39.3601
lfoot -13.6077 -6.18629
ltoes -10.5544
